<?xml version="1.0" encoding="UTF-8" standalone="no"?>
<svg width="456" height="456" viewBox="0 0 456 456" version="1.1" xmlns="http://www.w3.org/2000/svg">
    <g transform="translate(72,72) scale(13)" fill="#ffffff" fill-rule="nonzero">
        <path d="M13.49 5.48c1.1 0 2-.9 2-2s-.9-2-2-2-2 .9-2 2 .9 2 2 2zm-3.6 13.9l1-4.4 2.1 2v6h2v-7.5l-2.1-2 .6-3C14.07 12 16.07 13 18.27 13v-2c-1.9 0-3.5-1-4.3-2.4l-1-1.6c-.4-.6-1-1-1.7-1-.3 0-.5.1-.8.1L6.27 6.6v4.7h2V7.9l1.8-.7-1.6 8.1-4.9-1-.4 2 7 1.4z"/>
    </g>
</svg>
